/* XPM */
static char *_f81940355ba427ad190d296abacb424cpwd8xH4UgXAXCRy[] = {
/* columns rows colors chars-per-pixel */
"64 64 104 2 ",
"   c None",
".  c #130F13",
"X  c #131114",
"o  c #141817",
"O  c #161719",
"+  c #161C1A",
"@  c #191D1C",
"#  c #15241B",
"$  c #19221E",
"%  c #17281E",
"&  c #18291F",
"*  c #1C2521",
"=  c #1C2C23",
"-  c #1D3226",
";  c #1F3529",
":  c #222627",
">  c #202D27",
",  c #212E28",
"<  c #292E2F",
"1  c #20372A",
"2  c #223A2C",
"3  c #2A2F31",
"4  c #263C30",
"5  c #283E33",
"6  c #264232",
"7  c #2A4536",
"8  c #2A4937",
"9  c #2E4539",
"0  c #2E4D3B",
"q  c #2F503D",
"w  c #30523F",
"e  c #315440",
"r  c #355B45",
"t  c #385947",
"y  c #375E48",
"u  c #395B49",
"i  c #3A634B",
"p  c #3D684F",
"a  c #3E6A51",
"s  c #406751",
"d  c #416E54",
"f  c #437157",
"g  c #457459",
"h  c #48775D",
"j  c #47795C",
"k  c #49795E",
"l  c #4A7E61",
"z  c #4D8465",
"x  c #508767",
"c  c #508768",
"v  c #518969",
"b  c #518A69",
"n  c #518B69",
"m  c #518A6A",
"M  c #518B6A",
"N  c #528B6A",
"B  c #528B6B",
"V  c #528C6A",
"C  c #528C6B",
"Z  c #528D6B",
"A  c #538D6C",
"S  c #538E6C",
"D  c #548F6D",
"F  c #54906E",
"G  c #55906E",
"H  c #55916E",
"J  c #55916F",
"K  c #55926F",
"L  c #56926F",
"P  c #569370",
"I  c #569470",
"U  c #569471",
"Y  c #579471",
"T  c #579571",
"R  c #579572",
"E  c #589673",
"W  c #599774",
"Q  c #599775",
"!  c #5A9775",
"~  c #5B9576",
"^  c #5B9976",
"/  c #5B9977",
"(  c #5C9C78",
")  c #61A17E",
"_  c #649C82",
"`  c #68AA88",
"'  c #70B593",
"]  c #79C09F",
"[  c #7FC7A6",
"{  c #80C3A7",
"}  c #82C3A9",
"|  c #82CBAA",
" . c #84CDAC",
".. c #84CEAD",
"X. c #89CEB3",
"o. c #8ACFB3",
"O. c #88D2B2",
"+. c #89D4B3",
"@. c #8AD5B4",
"#. c #90DDBD",
"$. c #94E2C2",
"%. c #98E6C6",
"&. c #98E7C6",
"*. c #98E7C7",
/* pixels */
"                                                                                                                                ",
"                                                                                                                                ",
"            . . X X . X . . X X . . . . X . . . . . X X . . . . X . . . . . X X . . . . X X . X X . X X . X X . X X             ",
"        . . . . . . . . . . . . . . . . . . . . . . . . . . . . . . . . . . . . . . . . . . . . . . . . . . . . X . X           ",
"      X . X . O @ @ @ @ * , , < 4 4 3 5 9 8 8 8 9 9 9 9 9 9 9 9 9 9 9 9 9 9 9 @ . . @ , * : 3 3 3 : @ O @ O + + X X . .         ",
"      X X X 5 s h l z x v v v v A D D D P K K I J J J J J J P P J J J P P P m 4 . . u A Q [ X.X.o.} _ l h h h g u * . . X       ",
"    X . X 5 A P P P U U U U U U P P P P P P I I P P P P P U U U P P P P P Y m : . O s Q ] %.%.%.*.%.$.' E E E E E h : . . X     ",
"    X . + h E P P P P K U U U U U U U U P P E E P P D D A A A B B B B J J Y c * . O f ( O.#.@. .|  .@.[ ~ C v C K L t . X X     ",
"    X . * c E U P P D v x z l j z a j a z a j a f a p p i i i i r r y i a j h @ . @ l c ` ` E Q W ^ ^ ( h r r t i d t O . X     ",
"    X . > v K z g s y r r e r e e w w w w e w w q w w w q w q w e e 0 8 q e 8 O . @ p y v U K K L L L L z e w e w w 6 O . .     ",
"    . . , l d r e w e e e e w e r w w r e e e e w w w r w w w w e 0 4 ; 6 e 5 O . @ 0 t z U P P L U L U C i e e e e 8 O . X     ",
"    X . , u e e e e e e e e e e w w w w e e e e r w w w w w w r e q 4 ; 9 e 4 X . * 0 e f P P P U L L L C r e e e e 0 O X X     ",
"    X . * w e e e e e e e w e e w w r w w w w w w w r w w r w w e e 6 6 e e 2 . . * q e r z P P L U L U h e w e e e q O . X     ",
"    X . * w w e e e e e e e e e w w w w w r w w w w w w w w w w e q 2 ; 0 r 1 . . = e e e y l D U L F j r e e e e e 0 @ . .     ",
"    . . * 0 e e e e e e e e e e w r r w w r w r r w w r r w w r e e 6 6 q e = . . , e e e e e i f f i e e e e e e e q @ . X     ",
"    X . + 0 e w e e w e e e e e w w w w w w w w w w w w w w w w e e e q e e = X . , e e e e e e q q e e e e e e w e q @ . X     ",
"    . X O 0 e e w e e e e e e e e e e e e e e e w r w w r w w w w r w w w w : . . 2 e e e e e e w e e e e e e e e e q $ . X     ",
"    X . O 0 e e e e e e e e e e e w e e e e e e w w w w w w w w w w w r w 0 $ . . 5 e e e e e e e e e e e w w e e e q : . .     ",
"    X X O 4 7 5 5 7 9 9 0 0 w q w w e e e e e e w w w w w w w w w w w w w w @ . X 5 e e e e e e e e w q q q 0 9 7 5 1 @ . X     ",
"    X . . X O X X O O O + @ $ * > > 1 1 5 5 5 5 7 9 8 0 w w w 0 0 w 0 0 0 8 + . X 4 9 7 5 5 2 2 1 > = = $ @ O O X X . . X X     ",
"    X X . . X . . . . . . . . . . . . . . X X O O O X O O O O O O O O O O O X . . O O X X X X X . . . . . . . . . . . . . X     ",
"    . . X O @ @ @ O O O O . . . . . . . . . . . . X X . X . X X X X . X . . X X . . . . . . X . . . . . X X X O O $ : O X .     ",
"    X . @ 9 0 q q q 0 8 > . . @ 1 > > * : @ @ @ O O O O X O O X O X O X O O X O O O O @ @ $ * = > > 1 2 5 7 7 0 0 w w > . X     ",
"    . . $ q e e e e e e , . . > w e w w q q 0 q 0 0 0 7 8 7 8 8 7 7 0 7 9 7 9 9 0 0 0 0 0 w w w w w e e e e e e w w w > . X     ",
"    X . * w w e e e e e , . . > w e 8 7 7 0 w w e r w w w e e r w w w w w w w w e e e e e e e e e e e e e w w w w r w > . . .   ",
"    X . : q w e e e e e 1 . . > e q 2 1 1 6 w w e e w w e e e e r w r w w r r w e e e w e e e w e e w e e e w r w w w 1 . . X   ",
"    . . : w e e e e e e , . . , e 8 1 1 1 6 e e e e r w e e e e w w r w w w w w e e e e e e e e e e e e e e e w w w w 1 . . .   ",
"  . X . > e e e e e e e > . . , e 8 1 2 6 w e e w w w w e e e e w w w w w r w w e e e e e e e e e e e e e e w w w r r , . X X   ",
"  X X . 1 e e e e e e w > X . 1 e e 8 8 e e e e e e w e e e e e r w w r w w w w e e e w e e e e e e e w w w w w e e w , . . X   ",
"  X . . 1 e e e e e e w > . . , e e e e e e e e e e e e e e e w w w w w r w w r e e e e e e e e e e e e r w w r e w w > . X     ",
"  . X . , e e e 8 0 w w > . . 1 e e e e e e e e e e e e e e e e w w w w w w w w e e e w e e e w e e e e w e w w e w w $ . X     ",
"  X X . 1 e e e 4 6 e w * . . 1 e e e e e e e e e e e e e e e e r w w r w w r w e e e e e e e e e e e e w w r w w r 0 : . X     ",
"  X . . 1 e e e q q e q * . . 2 e e e e e e e e e e e w e e e e w w w w w w w w e e e e e e e e e e e e e e e e e e e + . .     ",
"  . X . , e e e e e e q * . . 4 e e w e e w e e e e e e e e w e w w w w r w w r e e e e e e e e 8 2 0 e e e e e e e e @ . .     ",
"  X . . 1 e e 8 5 7 e w * . . 4 e e e e e e e e e e e e e e e e w q 0 q q w w w e e e e e e e e e 8 e e e e e e e e 0 + X X     ",
"  . . . , e w 2 1 2 9 e * . . 2 e e e e e e e e e e e e e e w 8 6 2 ; 2 2 6 0 w e e e e e e 8 6 6 8 e e e e e e e e e + X X     ",
"    X . > q e 4 1 1 7 q * . . 4 e e e e w e e e e w e e w w 8 ; 1 1 1 1 ; 2 2 2 8 e e e e e 2 ; - 6 8 2 6 e e e e e e @ X X     ",
"    X . > w e 0 6 6 0 0 @ . X 5 e e e e e e e e e e e e w q 2 2 1 1 1 1 2 ; 1 1 2 2 8 e e 8 2 ; ; 6 2 ; ; e e e e e 0 @ . X     ",
"    . . > w e e e e e q @ . O 5 e e e e w e e w e w e e e 8 2 2 1 1 2 1 1 1 1 1 ; 2 2 6 e 8 ; 2 6 0 6 2 6 e e e e e e @ X X     ",
"    X . = 0 0 q 0 0 w 8 @ . O 4 e w w e w w w w w w w w w 2 - - 1 1 ; 1 1 1 ; ; ; ; ; ; 6 0 7 7 0 e e 8 e e 8 0 0 0 9 @ X X     ",
"    X . O O O O O O @ @ O . X @ * * * * * * * * # % % - & $ $ @ # # # # @ + + + @ + + @ @ * * * * @ @ @ @ @ @ O O O O O . .     ",
"    . X . . . . . . . . . . . . . X . . . . . . . . . . X X . X o . . . . . X X X X X X X X . . . . . . X . . . . . . . . .     ",
"    X . X O O X O X X O O O X X X X X . . . X X o o o # . X X X . . . . . X X X . . X X X X X X X X O X X O O X X O O X . X     ",
"    X . + 4 9 9 8 7 6 6 5 5 5 4 2 2 5 2 5 2 2 4 1 1 - - $ $ $ $ * * # * # * # X X o * * * * ; 2 4 5 6 5 5 5 9 8 8 8 5 * . X     ",
"    X . + 2 0 e e e e e e e e e e e e e e e e e e e e 6 2 ; ; ; ; ; ; 2 ; 2 * X . + ; 2 ; 2 8 e e e e e e e e e e e e = . .     ",
"    . . @ ; 6 q e e e e e e e e e e e e e w q e q 8 6 1 ; ; 2 2 ; ; ; 2 ; 2 * X X + ; 1 ; 2 e e e e e e e e e e e e e * . X     ",
"    . . @ ; ; 6 e e e e e e e e e e w 0 7 5 2 2 6 1 1 1 2 ; 2 ; ; 2 ; ; 2 2 = X X @ ; 1 2 6 e e e e e e 0 0 e e e e q * . X     ",
"    X X + ; ; 2 6 q e e e e e 8 6 6 2 2 1 1 1 2 1 1 1 1 ; 2 ; ; ; ; ; 2 ; 2 # X . @ 1 1 ; 7 e e e e e q 4 2 7 e e e q * . X     ",
"    X X + - ; ; 2 2 8 0 q q 6 ; 1 1 1 1 1 1 1 2 1 1 1 2 1 1 2 2 ; ; ; 2 ; 1 $ . X # ; 2 ; 6 w w e e q 6 ; 2 2 0 q 8 2 # . .     ",
"    X . o ; 2 ; 2 ; ; ; ; 2 ; ; 1 1 1 1 1 1 1 1 1 1 ; ; 1 1 ; 1 2 2 ; ; 2 ; $ X X & 2 ; ; 6 q q e e 6 ; 2 ; ; 2 2 ; ; o X X     ",
"    . X O ; ; 6 ; ; ; ; ; ; 2 - ; ; 2 ; 1 1 2 1 1 1 2 ; 2 1 1 2 ; ; 2 ; ; 1 + X X $ ; ; ; ; 6 6 6 4 2 ; ; 2 2 ; ; ; ; o . X     ",
"    X . o ; ; ; ; 2 - = - ; - & % & ; 2 1 1 1 1 1 1 1 1 1 1 1 ; ; 2 ; 2 ; ; + . X $ ; 6 ; ; ; ; ; ; 2 ; ; 2 ; ; ; 2 ; o X X     ",
"    . X O = ; ; ; ; # # & ; - # # # - ; ; 2 2 ; 1 1 1 1 1 1 ; 2 ; ; 2 ; - & o X X # = ; ; 2 ; ; ; 2 ; ; 2 ; ; ; 1 1 - O . X     ",
"    X . O = ; ; ; ; # # & - - # # # & ; 2 ; ; ; 1 1 1 1 ; ; 2 ; 2 ; ; ; % # o X X o # ; ; 2 ; 6 ; ; ; ; 6 ; ; ; ; ; = X X .     ",
"    X X X # = = ; ; ; - ; ; ; & % % ; ; ; 2 ; ; 1 2 1 1 ; ; 2 ; 2 ; ; ; # # X X X o # - ; ; 2 ; 2 ; ; ; ; ; ; ; - & # X . X     ",
"    X . X o # # # # - - ; ; ; ; ; ; ; ; ; - = & & & - ; ; 2 ; 2 ; ; ; & # # o . X # # = 2 ; ; ; ; ; - & & % # # # # + . X X     ",
"    X X . o # # # # # # % & & - - - & & # # # # # # # # & = - - ; ; - # # # X . X o # % & & & & & # # # # # # # # # o . . X     ",
"      . . X o + # # # # # # # # # # # # # # # # # # # # # # # # # % # # # # X X X # # # % # # # # # # # # # # # o o . X X       ",
"      X . X X X X o o o o + + + o o o + # # o # # # # # # # # # # # # # # # X X X + # # # # # # # # o o o o O X X X X . X       ",
"        X . . X X X . X X . X . X X o X . o X X o o o o o o o O o o o o o o X X . o O X X X X X . . X X X X X . X X X X         ",
"            X X X X X X X X X X . X . X . X X X . . . . . X . X X X X X . X . X . X . X . X X . . . X . . X . X X X             ",
"                    X X X X X X X X X . X X X X . . . X X X X . X X X X . . X . X X X . X X . o . . . X X X                     ",
"                                                                                                                                ",
"                                                                                                                                "
};
