/* XPM */
static char *e4cfd0b271144582ba9316f0ce3be3cc9w11iknY7Hb8hUP1[] = {
/* columns rows colors chars-per-pixel */
"64 64 102 2 ",
"   c None",
".  c #16160F",
"X  c #18160F",
"o  c #181710",
"O  c #1C1A13",
"+  c #211D16",
"@  c #241F19",
"#  c #26211A",
"$  c #2B241D",
"%  c #2E2621",
"&  c #2E2921",
"*  c #312723",
"=  c #332A24",
"-  c #382F27",
";  c #392E29",
":  c #35332A",
">  c #3C322B",
",  c #41352D",
"<  c #44382F",
"1  c #443730",
"2  c #463931",
"3  c #4B3C35",
"4  c #4F3F38",
"5  c #4E4037",
"6  c #54443B",
"7  c #59473E",
"8  c #5A493E",
"9  c #5E4C42",
"0  c #614E44",
"q  c #655147",
"w  c #665248",
"e  c #6B564B",
"r  c #6F594E",
"t  c #705A4F",
"y  c #735C51",
"u  c #7A6256",
"i  c #7D6458",
"p  c #81675A",
"a  c #856A5E",
"s  c #8A6E61",
"d  c #8D7164",
"f  c #907466",
"g  c #957769",
"h  c #97796A",
"j  c #9B7C6D",
"k  c #9E7F70",
"l  c #9F8070",
"z  c #A48474",
"x  c #AC8A79",
"c  c #B18E7D",
"v  c #B4907F",
"b  c #AE9587",
"n  c #B69280",
"m  c #BA9583",
"M  c #BE9886",
"N  c #C09987",
"B  c #C49D8A",
"V  c #C59E8C",
"C  c #C69F8C",
"Z  c #C79F8C",
"A  c #C49F8E",
"S  c #C29B89",
"D  c #C7A08D",
"F  c #C8A08D",
"G  c #C9A08D",
"H  c #C9A18E",
"J  c #CAA18E",
"K  c #CAA28E",
"L  c #CAA28F",
"P  c #CBA28F",
"I  c #CBA390",
"U  c #CCA390",
"Y  c #CBA492",
"T  c #CBA592",
"R  c #CBA593",
"E  c #CCA795",
"W  c #CDA795",
"Q  c #CAAA9B",
"!  c #D1AB99",
"~  c #D0AD9C",
"^  c #D2AF9F",
"/  c #C8AFA3",
"(  c #D7BBAD",
")  c #D8B8AA",
"_  c #D8BDB0",
"`  c #CCC2BC",
"'  c #DAD0CB",
"]  c #DBD2CD",
"[  c #DCD3CE",
"{  c #E5D2C9",
"}  c #E6D3CB",
"|  c #E6D4CC",
" . c #E9D9D2",
".. c #E9DAD3",
"X. c #EBDBD4",
"o. c #ECDCD5",
"O. c #EDE0DB",
"+. c #EEE2DE",
"@. c #F3E9E5",
"#. c #F3E9E6",
"$. c #F3EAE6",
"%. c #F4EAE6",
/* pixels */
"                                                                                                                                ",
"                                                                                                                                ",
"            . . . . . . . . . o . . . . . . . . . . . . . . . . . . . . . . . . . . . . O . o . . . o o . . . . . .             ",
"        . . O . . . . . . . . . . . . . . . . . . . . . . . . . . . . . . . . . . . . . . . . . . . . . . . . . . o .           ",
"      . o . . O + # $ $ = > > < 5 5 5 6 0 8 q 8 9 9 0 0 8 q 8 q q 8 q 8 9 9 9 $ . . $ < - : > : : & # # # # # # . . . .         ",
"      X . O 5 d z x n n m m M M S D N D F D D D D B B F D D D F D D D D B D M 5 . o u v / [ [ ' [ ` b z z z z l i - . . o       ",
"    . . . 7 M L K K K K T K K K K K K K F F L F H H H H F F L F F F L L L L M > . o s ! ..$.@.@.$.$.O.~ D T T U T z = . o .     ",
"    . . # z L H K K K K K K K K K K K K K U L D D H B B B S S S N N M D F U m $ . + l ( +.O.O.| | |  .( M M N N D L u . . .     ",
"    . . = m L L T D M M m x x x z z l l l l l l h g d s a a i i i i p a g z l # . # z E ( ! E T T T E K d i i i a h u + . .     ",
"    . . > m L n l d a i u u u y y y y t t t t t t y y y t y t t y y y y y y q # . # s l D F F F D K K F j t y y y y 8 O . .     ",
"    . . > c h i y t y t y y t y y y y y y y y y y y y y y y y y y y y y y y 8 o . $ e s D F K F D K L L x y y y y y 0 + . .     ",
"    . . > i y y y y y y y y y y y y y y y y y y y y y y y y y y y y y y y y 5 o . $ r u v T F K L D F L x y y y y y w + o o     ",
"    . . = r y y y y y y y y y y y y y y y y y y y y y y t y y y y y y y y y 5 o . = t y d D T F D H L B d y y y y y w # . .     ",
"    . . = r y y y y y y y y y y y y y y y y y y y y y y y y y y y y t y y y < . . - y y y d v D L D M h y y y y y y e # . .     ",
"    . . % e r r y y t y y y y y y y y y y t y y y y y y y y y y y y y y y y , . . > y y y y u d j g p y y y y y y y e $ . .     ",
"    . . # 9 9 9 r y y y y y y y y y y y y y y y y y y y y y y y y y y y y y : o . < y y y y y y t y t y y y y y y y r $ . .     ",
"    . . # q 6 5 e y y y y y y y y y y y y y y y y y y y y y y y y y y y y t = . . 3 y y y y y t y y y y y y y y y y r & o o     ",
"    . . O e e w y y y y y y y y y y y r y y y y y y y y y y y y y y y y y t $ . o 5 u y y y y y y y y y y t y y u y t = . .     ",
"    . . O 6 9 7 6 8 8 q e e r t y y y y y y y y y y y t y y y y y y y y y r # . O 8 y y u t t y y t t r r w q q 8 6 < # . .     ",
"    O . . O O . O O # O # # $ = - > 5 5 5 5 8 8 8 0 0 q r e e e e e w e e 0 # . o 5 0 8 8 6 4 3 2 , : - & # + + O O o . . .     ",
"    o . . . . . . . . . . . . . . . . . o o O O o O O # O # O # + + + + # O o . o O O O X O X X . . . . . . X . . . . . O .     ",
"    . . . + # $ # # # O o . . . . . . . . . . . . . . . . . . o . . . . . o . . . . . . X X X . . . X X o o O + # $ = # . .     ",
"    . . # q e e r e w q : . . $ < > - - = $ $ # # # O # O O O O O O O O O O O O # # + # $ $ = = : < 2 5 5 7 8 q e r r > . .     ",
"    o . $ e t u y y y u < . . > y y y y t r e e w e w q 8 q 9 q q q 8 q q 8 q 0 q w w e e r r r t t y y y u t u y y y > . .     ",
"    . . = r u u r r t u < . . > y y y y y y y y y y y u u t y u y y y y y y y y y y y y y y y y y y y y y y y y y y t : X o .   ",
"    . . - e r t t u t y < . . > t y y y y t y y y y y t y y y t y y y y y y y y y y y y y y y y y y w 9 9 e y y y y u < . . .   ",
"    . . > u u t y y y y , . . > y y y e e t y y y y t y y y y y y y y y y y y y y y y y y y y y y e 4 3 3 7 t y y y y < . o o   ",
"  . . . > t r y y y y y > . . 2 y y q 5 5 q y y y y y y y y y y y y y y y y y y y y y y y y y y y 0 3 3 3 9 y y y y u , . . .   ",
"  . . . < u y y y y y y > . . < y y q 5 < 5 r t y y y y y y y y y y y y y y y y y y y y y y y y y 0 4 4 8 t y y y y t < . . .   ",
"  o . . < r y y y y y y : . . < y y r 6 5 6 t y y y y y y y y y y y y y y y y y y y y y y y y y y t w 0 t y y y y y t : . .     ",
"  . O . 2 y r y y t y y > . . < y y y r w r t y y y y y y t y y y y y y y y y y y y y y y y y y y y y y y y y y y y r = . .     ",
"  . . . < u u r y y y r - . . < y q r y r t y y y y y y y y y y y y y y y y y y y y y y y y y y y y y y y y y y y y r = . .     ",
"  . . . < y y y y y y t = . o 5 q 4 e q 6 e y y y y y y y y y y y y y y y y y y y y y y y y y y y y y y y y y y y y e $ X X     ",
"  . . . 2 y y y y y y r = . o 5 y w y r 0 t y y y y y y y y y y y y y y y y y y y y y y y y y y y y y y y y y y y y e $ X X     ",
"  . o . 2 y y y y y y r = . o 5 y y y y y y y y y y y y y y y y t e w e r t y y y y y y y y y y y y y y y y y y y y r $ . .     ",
"  . . . < y y y y y t r = . . 5 y y y y y y y y y y y y y y t 0 6 5 5 5 6 8 q r y y y y y y y y y y y y y y y y y y e $ . X     ",
"    o . > y y y y y y r $ o o 5 y y y y t y y y y y y y y y 0 4 3 3 3 3 2 3 5 6 0 r t y y y y y y y y y y y y y y y r $ . .     ",
"    . . : y y y y y y e # . O 8 y y y y y y y y y y y y y e 4 3 3 3 3 3 3 3 3 3 3 6 0 y y y y y y y y y y y y y y t e $ . .     ",
"    . . > y y y y y y r $ . O 8 y y y y y y y t y y y y y 9 3 3 3 3 3 3 3 3 3 3 3 3 4 8 t y t y y y y y y y y y y u e $ . X     ",
"    . . - w e e e e e q $ . o 6 t r t y r t t t r r t t e 6 3 3 3 2 3 3 3 3 3 2 < 3 3 3 8 t r e r w r e r e e w e w 0 $ . .     ",
"    . . O + + + + @ $ $ o X . # = = = = = = = = * * ; ; ; % $ $ $ $ $ $ $ $ @ # $ @ # # $ = = = $ $ $ # $ $ # + + + # . . .     ",
"    . O . . . . . . . . . X . . . . . . . . . . . . . . . . . . . . . . . . . . . . . . . X . . . . . . . . . . . . . . . .     ",
"    . . . O O O O O O o O O O o X o o o o o . . o o . . . . . . . . . . . . X X X X X X X o o o o O O O O O O O O O O o o .     ",
"    . . # 6 0 q 0 7 7 9 7 7 6 6 5 5 5 5 5 5 5 5 3 4 4 1 = = % = & = & = = = $ X . + = = = - 3 5 6 8 6 8 8 6 8 q q 9 9 = . .     ",
"    . . # 5 e y y y y y y y y y y y y y y u y y y y y 7 4 3 3 4 3 3 4 3 4 3 - X . $ 3 3 3 3 w y t y u r y y y y t u t - . .     ",
"    . . # 3 7 r y y y y y y y y y y y y t t t t r w 7 4 3 3 3 3 3 3 3 3 3 3 = X . # 3 3 3 4 r y u r u t y y y y t y t = . .     ",
"    . o # 2 3 9 t y y y y y y y y y r e 0 6 5 5 4 4 3 3 3 3 3 3 3 3 3 3 3 3 & . . $ 2 3 3 7 t y y y r y r r t y u r r = . .     ",
"    . . # 2 3 3 9 r y y y y y 0 9 7 6 4 3 3 3 4 3 3 1 ; ; 1 3 3 3 3 3 3 3 4 = . . $ 3 3 3 8 y y y y y e 6 5 q y y y r = . .     ",
"    . . @ 2 3 3 3 6 9 w r e 7 3 3 3 3 3 3 3 3 3 3 3 > * * ; 1 3 3 3 3 3 3 3 % . . * 3 3 3 0 y y y y t 7 3 3 4 w e 0 6 @ o .     ",
"    o . + 1 3 3 3 3 3 4 4 3 3 3 3 3 3 3 3 3 3 3 3 3 , * * * ; 4 3 3 3 3 3 3 $ . . * 3 3 3 4 e t t r 9 3 3 3 3 4 4 3 1 @ o o     ",
"    . . O 3 3 3 3 3 3 3 3 3 3 3 3 3 3 3 3 3 3 3 3 3 1 * * * 1 3 3 3 3 3 3 3 $ o . * 3 3 3 3 4 9 9 6 3 3 3 3 3 3 3 3 1 + o o     ",
"    . o O 1 3 3 3 3 3 3 3 3 3 3 3 3 3 3 3 3 3 3 3 3 3 1 ; ; 3 1 1 1 3 3 3 1 @ . X * 3 3 3 3 3 3 2 3 3 3 3 3 3 3 3 3 1 O . o     ",
"    . . O 1 3 3 3 3 3 3 3 3 3 3 3 3 3 3 3 3 3 3 3 3 3 3 3 3 3 ; * ; 1 3 1 ; + o . $ ; 3 3 3 3 3 3 3 3 3 3 3 3 3 3 3 1 O . .     ",
"    . o O > 3 3 3 3 3 3 3 3 3 3 3 3 3 3 3 3 3 3 3 3 3 3 3 3 3 * * = 1 3 ; * O o o @ = 1 3 3 3 3 3 3 3 3 3 3 3 3 3 3 > O o .     ",
"    . . O = ; > 1 1 3 3 3 3 3 3 3 3 3 3 3 3 3 3 3 3 3 3 3 3 3 ; ; , 3 ; * % O . o % * 1 3 3 3 3 3 3 3 3 2 3 1 1 > ; % o . o     ",
"    o . . # * * * ; ; 1 3 3 3 3 3 3 3 3 3 1 ; ; ; > , 1 3 3 3 3 3 3 3 ; * * O o o @ = > 3 3 3 3 3 1 > ; ; * * = * * # o . .     ",
"    . o o O % * * * * * = ; ; , > , ; ; * * * * * * * = ; ; 1 1 1 1 , * * % X X o % * * ; ; ; ; ; * * * * * * * * * O o o .     ",
"      . o . + $ * * * * * * * * = * = * * * * * * * * * * * * * = * * * * % o X o % * * * * * * * * * * * * * % $ + . . o       ",
"      . o . o o O O + @ @ @ @ @ @ @ $ $ % % % * * * % * * * * * * * * % % % o X o $ * * * % % % $ @ @ $ @ + + O X X . o .       ",
"        o . . . . . o . o o o o . . o o o o o O O O + + @ @ + + @ @ + @ @ + o X o O O O O O o o O o o o . . . . . . X .         ",
"            . o . o o o o X X X . o . . . o o o o o . . o o . o o . o o X X X . o . . . o . . . o o . . o . . o . o             ",
"                    o o o o X X . o . o . . o o o . . o o o . . . o o o X X . . . . o . . . o o o . . o . .                     ",
"                                                                                                                                ",
"                                                                                                                                "
};
