/* XPM */
static char *result[] = {
/* columns rows colors chars-per-pixel */
"64 64 69 1 ",
"  c #010101",
". c #0C0202",
"X c #0B0B0B",
"o c #150202",
"O c #1C0202",
"+ c #121212",
"@ c #1B1B1B",
"# c #230203",
"$ c #2C0204",
"% c #350204",
"& c #3B0203",
"* c #242424",
"= c #2D2D2D",
"- c #343434",
"; c #3B3B3B",
": c #430203",
"> c #4C0204",
", c #530304",
"< c #5C0204",
"1 c #630204",
"2 c #6B0204",
"3 c #670209",
"4 c #740203",
"5 c #7C0203",
"6 c #7C0209",
"7 c #444444",
"8 c #4D4D4D",
"9 c #545454",
"0 c #5B5B5B",
"q c #626262",
"w c #6C6C6C",
"e c #747474",
"r c #7C7C7C",
"t c #810203",
"y c #8C0304",
"u c #930304",
"i c #9C0304",
"p c #920208",
"a c #9E0208",
"s c #A40204",
"d c #AC0204",
"f c #B30304",
"g c #BD0305",
"h c #C40204",
"j c #CB0303",
"k c #C60208",
"l c #C80308",
"z c #D40204",
"x c #DB0304",
"c c #E30203",
"v c #EC0204",
"b c #F30203",
"n c #FC0102",
"m c #838383",
"M c #8C8C8C",
"N c #939393",
"B c #9D9D9D",
"V c #A3A3A3",
"C c #ACACAC",
"Z c #B2B2B2",
"A c #BCBCBC",
"S c #C3C3C3",
"D c #CCCCCC",
"F c #D3D3D3",
"G c #DBDBDB",
"H c #E3E3E3",
"J c #ECECEC",
"K c #F3F3F3",
"L c #FFFFFF",
/* pixels */
"LLLLLLLLLLLLLLLLLLLLLLLLLLLLLLLLLLLLLLLLLLLLLLLLLLLLLLLLLLLLLLLL",
"LLLLLLLLLLLLLLLLLLLLLLLLLLLLLLLLLLLLLLLLLLLLLLLLLLLLLLLLLLLLLLLL",
"LLLLLLLLLLLLLLLLLLLLLLLLLLLLLLLLLLLLLLLLLLLLLLLLLLLLLLLLLLLLLLLL",
"LLLLLLLLLLLLLLLLLLLLLLLLLLLLLLLLLLLLLLLLLLLLLLLLLLLLLLLLLLLLLLLL",
"LLLLLLLLLLLLLLLLLLLLLLLLLLLLLLLLLLLLLLLLLLLLLLLLLLLLLLLLLLLLLLLL",
"LLLLLLLLLLLLLLLLLLLLLLLLLLLLLLKLLKLLLLLLLLLLLLLLLLLLLLLLLLLLLLLL",
"LLLLLLLLLLLLLLLLLLLLLLLLLLGZMe09999wmCFKLLLLLLLLLLLLLLLLLLLLLLLL",
"LLLLLLLLLLLLLLLLLLLLLLLHB9             -mFKLLLLLLLLLLLLLLLLLLLLL",
"LLLLLLLLLLLLLLLLLLLLLHmX      #&:&%       qDLLLLLLLLLLLLLLLLLLLL",
"LLLLLLLLLLLLLLLLLLLKC@   .3dzvnnnnnbxg5#   XmKLLLLLLLLLLLLLLLLLL",
"LLLLLLLLLLLLLLLLLLKr   %scnnnnnnnnnnnnnbg>   8HLLLLLLLLLLLLLLLLL",
"LLLLLLLLLLLLLLLLLKw   uvnnnnvjgsssfhcnnnnbf$  ;HLLLLLLLLLLLLLLLL",
"LLLLLLLLLLLLLLLLLm  Ognnncd<         :aznnnx,  9KLLLLLLLLLLLLLLL",
"LLLLLLLLLLLLLLLLS  olnnbs.              5cnnv>  MLLLLLLLLLLLLLLL",
"LLLLLLLLLLLLLLLK8  dnnx,    0NCSSSABw+   #knnzo XGLLLLLLLLLLLLLL",
"LLLLLLLLLLLLLLLS  <bnv:  XNHLLLLLLLLLJZ-  .jnni  MLLLLLLLLLLLLLL",
"LLLLLLLLLLLLLLLr  knn4  8GLLLLLLLLLLLLLJr  %vnco ;KLLLLLLLLLLLLL",
"LLLLLLLLLLLLLLK- ovnx  ;HKLLLLLLLLLLLLLLKw  dnn2  FLLLLLLLLLLLLL",
"LLLLLLLLLLLLLLH  ,nnd  VLLLLLLLLLLLLLLLLLF  2nni  ALLLLLLLLLLLLL",
"LLLLLLLLLLLLLLG  5nny  DLLLLLLLLLLLLLLLLLK= $nnh  VLLLLLLLLLLLLL",
"LLLLLLLLLLLLLLF  5nny  FLLLLLLLLLLLLLLLLLK- #bnj  VLLLLLLLLLLLLL",
"LLLLLLLLLLLLLLH  2nni  ZLLLLLLLLLLLLLLLLLH+ >nnd  ZLLLLLLLLLLLLL",
"LLLLLLLLLLLLLLK* $bnz  qLLLLLLLLLLLLLLLLLB  ann5  DLLLLLLLLLLLLL",
"LLLLLLLLLLLLLLLq  znb:  BLLLLLLLLLLLLLLLD+  xnb% @JLLLLLLLLLLLLL",
"LLLLLLLLLLLLLLLC  ynnh   VLLLLLLLLLLLLLD=  ynnh  eLLLLLLLLLLLLLL",
"LLLLLLLLLLLLLLLH*  xnna   mJLLLLLLLLLKV+  3bnv:  ALLLLLLLLLLLLLL",
"LLLLLLLLLLLLLLLLN  <bnni   7SLLLLLLLGw   4vnnu  0LLLLLLLLLLLLLLL",
"LLLLLLLLLLLLLLLLK7  5nnng#   wFLLLHN    ubnnd  +FLLLLLLLLLLLLLLL",
"LLLLLLLLLLLLLLLLLF@  5vnnx2X   mFB@   >hnnnd   VLLLLLLLLLLLLLLLL",
"LLLLLLLLLLLLLLLLLLA   1cnnbg:       Osbnnby   NLLLLLLLLLLLLLLLLL",
"LLLLLLLLLLLLLLLLLLLA   $fnnnbf$    pcnnnj>   NKLLLLLLLLLLLLLLLLL",
"LLLLLLLLLLLLLLLLLLLLF7   3znnnvf&uxnnncy    ZLLLLLLLLLLLLLLLLLLL",
"LLLLLLLLLLLLLLLLLLLLLJm    ycnnnnnnnvsO   0GLLLLLLLLLLLLLLLLLLLL",
"LLLLLLLLLLLLLLLLLLLLLLLm    Ojnnnnnc,    9JLLLLLLLLLLLLLLLLLLLLL",
"LLLLLLLLLLLLLLLLLLLLLJm   Xycnnnnnnnvd$   9GLLLLLLLLLLLLLLLLLLLL",
"LLLLLLLLLLLLLLLLLLLLF;   2znnnvd:ycnnnvp   @CLLLLLLLLLLLLLLLLLLL",
"LLLLLLLLLLLLLLLLLLLA+  $gbnnbs%   .yxnnnz,   BKLLLLLLLLLLLLLLLLL",
"LLLLLLLLLLLLLLLLLLAX  1cnnnh&       Oibnnvy   MLLLLLLLLLLLLLLLLL",
"LLLLLLLLLLLLLLLLLFX  5nnnx1   XeFB*   &lnnnd.  VLLLLLLLLLLLLLLLL",
"LLLLLLLLLLLLLLLLJ7  5nnnfO   wGLLLJN+   ybnnf  XFLLLLLLLLLLLLLLL",
"LLLLLLLLLLLLLLLLN  1nnnu   7SLLLLLLLGw   2vnnu  0KLLLLLLLLLLLLLL",
"LLLLLLLLLLLLLLLH*  xnni   wHLLLLLLLLLLC+  1bnb>  SLLLLLLLLLLLLLL",
"LLLLLLLLLLLLLLLC  ynng    @=0VFKLLLLLLLD-  unnh  eLLLLLLLLLLLLLL",
"LLLLLLLLLLLLLLLq  znb:         7VJLLLLLLF@  xnb& +JLLLLLLLLLLLLL",
"LLLLLLLLLLLLLLJ* $nnl  &5t2      *MDHHGDC-  unnt  SLLLLLLLLLLLLL",
"LLLLLLLLLLLLLLH  1nnccnnnnnncg6             >nns  ZLLLLLLLLLLLLL",
"LLLLLLLLLLLLLLF  tnnnnnnnnnnnnnxu#        %ygnnj  VLLLLLLLLLLLLL",
"LLLLLLLLLLLLLLF  5nnvzgsuyafxnnnnvgu445sgxnnnnnj  VLLLLLLLLLLLLL",
"LLLLLLLLLLLLLLH  2nnp        ,fbnnnnnnnnnnnnnnnf  CLLLLLLLLLLLLL",
"LLLLLLLLLLLLLLJ  >nnf          %ixbnnnnnbxgy6nnu  ALLLLLLLLLLLLL",
"LLLLLLLLLLLLLLK; obnz          2y4:2tt51&   snn4  GLLLLLLLLLLLLL",
"LLLLLLLLLLLLLLLw  znb>      ,fvnnnvh5       znb$ =KLLLLLLLLLLLLL",
"LLLLLLLLLLLLLLLZ  ynnz& .>ixbnnnnnnnncd1O odnnh  eLLLLLLLLLLLLLL",
"LLLLLLLLLLLLLLLH*  zbnnvvnnnnncs3yznnnnnbvvnnv:  SLLLLLLLLLLLLLL",
"LLLLLLLLLLLLLLLLN  :znnnnnnvk2     ,dcnnnnnnv4  0KLLLLLLLLLLLLLL",
"LLLLLLLLLLLLLLLLK9  .yhjjf5.          1shzjs&  *GLLLLLLLLLLLLLLL",
"LLLLLLLLLLLLLLLLLH0           9VHZw           *DLLLLLLLLLLLLLLLL",
"LLLLLLLLLLLLLLLLLLKB*      7MDLLLLLHV9       mHLLLLLLLLLLLLLLLLL",
"LLLLLLLLLLLLLLLLLLLLKDCCCAGKLLLLLLLLLLHSCCCSJLLLLLLLLLLLLLLLLLLL",
"LLLLLLLLLLLLLLLLLLLLLLLLLLLLLLLLLLLLLLLLLLLLLLLLLLLLLLLLLLLLLLLL",
"LLLLLLLLLLLLLLLLLLLLLLLLLLLLLLLLLLLLLLLLLLLLLLLLLLLLLLLLLLLLLLLL",
"LLLLLLLLLLLLLLLLLLLLLLLLLLLLLLLLLLLLLLLLLLLLLLLLLLLLLLLLLLLLLLLL",
"LLLLLLLLLLLLLLLLLLLLLLLLLLLLLLLLLLLLLLLLLLLLLLLLLLLLLLLLLLLLLLLL",
"LLLLLLLLLLLLLLLLLLLLLLLLLLLLLLLLLLLLLLLLLLLLLLLLLLLLLLLLLLLLLLLL"
};
