/* XPM */
static char *result[] = {
/* columns rows colors chars-per-pixel */
"64 64 76 1 ",
"  c #010101",
". c #0A0404",
"X c #00030A",
"o c #0C0C0C",
"O c #150303",
"+ c #1C0304",
"@ c #191717",
"# c #1B1A1A",
"$ c #240404",
"% c #2B0303",
"& c #340303",
"* c #3C0303",
"= c #242323",
"- c #2B2A2A",
"; c #353535",
": c gray23",
"> c #430303",
", c #4B0304",
"< c #540303",
"1 c #5D0403",
"2 c #5E0208",
"3 c #640304",
"4 c #6C0303",
"5 c #740303",
"6 c #7A0303",
"7 c #7B0308",
"8 c #444444",
"9 c #494949",
"0 c gray33",
"q c #5B5B5C",
"w c #605A5D",
"e c #626363",
"r c #6B6B6B",
"t c #747474",
"y c #7C7C7C",
"u c #840205",
"i c #8B0405",
"p c #920304",
"a c #970409",
"s c #A40304",
"d c #AD0403",
"f c #B50304",
"g c #BB0304",
"h c #B70309",
"j c #BE0308",
"k c #C40204",
"l c #CC0305",
"z c #C90408",
"x c #D40305",
"c c #DC0305",
"v c #D6040A",
"b c #DC0508",
"n c #E40204",
"m c #EC0204",
"M c #E30108",
"N c #EC0309",
"B c #F40304",
"V c #FB0202",
"C c #F3040A",
"Z c #F90208",
"A c #868686",
"S c #8B8C8C",
"D c #949494",
"F c #9A9A9A",
"G c #A3A3A3",
"H c #ABABAB",
"J c #B4B4B4",
"K c #BCBCBC",
"L c #C3C3C3",
"P c #CBCBCB",
"I c LightGray",
"U c #D9D9D9",
"Y c #E2E2E2",
"T c #EBEBEB",
"R c #F5F5F5",
"E c #FFFFFF",
/* pixels */
"EEEEEEEEEEEEEEEEEEEEEEEEEEEEEEEEEEEEEEEEEEEEEEEEEEEEEEEEEEEEEEEE",
"EEEEEEEEEEEEEEEEEEEEEEEEEEEEEEEEEEEEEEEEEEEEEEEEEEEEEEEEEEEEEEEE",
"EEEEEEEEEEEEEEEEEEEEEEEEEEEEEEEEEEEEEEEEEEEEEEEEEEEEEEEEEEEEEEEE",
"EEEEEEEEEEEEEEEEEEEEEEEEEEEEEEEEEEEEEEEEEEEEEEEEEEEEEEEEEEEEEEEE",
"EEEEEEEEEEEEEEEEEEEEEEEEEEEEEEEEEEEEEEEEEEEEEEEEEEEEEEEEEEEEEEEE",
"EEEEEEEEEEEEEEEEEEEEEEEEEEEEEEEEEEEEEEEEEEEEEEEEEEEEEEEEEEEEEEEE",
"EEEEEEEEEEEEEEEEEEEEEEEEEEEEEEEEEEEEEEEEEEEEEEEEEEEEEEEEEEEEEEEE",
"EEEEEEEEEEEEEEEEEEEEEEEEEEEEEEREEEEEEEEEEEEEEEEEEEEEEEEEEEEEEEEE",
"EEEEEEEEEEEEEEEEEEEEEEEEEEETLGDDDGIREEEEEEEEEEEEEEEEEEEEEEEEEEEE",
"EEEEEEEEEEEEEEEEEEEEEEEEEEG- .     qUEEEEEEEEEEEEEEEEEEEEEEEEEEE",
"EEEEEEEEEEEEEEEEEEEEEEEERF  XO%&%.. ;YEEEEEEEEEEEEEEEEEEEEEEEEEE",
"EEEEEEEEEEEEEEEEEEEEEEEEU@ >hnmmMxi  eREEEEEEEEEEEEEEEEEEEEEEEEE",
"EEEEEEEEEEEEEEEEEEEEEEERH OlVVVVVVViX IEEEEEEEEEEEEEEEEEEEEEEEEE",
"EEEEEEEEEEEEEEEEEEEEEEEED %NVVVZVVVx  HEEEEEEEEEEEEEEEEEEEEEEEEE",
"EEEEEEEEEEEEEEEEEEEEEEEEF +nVVz4vVVv  HEEEEEEEEEEEEEEEEEEEEEEEEE",
"EEEEEEEEEEEEEEEEEEEEEEEEy &mVZs gVVbO GEEEEEEEEEEEEEEEEEEEEEEEEE",
"EEEEEEEEEEEEEEEEEEEEEEEEt ,VVVg kVVnO FEEEEEEEEEEEEEEEEEEEEEEEEE",
"EEEEEEEEEEEEEEEEEEEEEEEEF OxVVk.xVVfX KEEEEEEEEEEEEEEEEEEEEEEEEE",
"EEEEEEEEEEEEEEEEEEEEEEERK  kVVg vVVs  YEEEEEEEEEEEEEEEEEEEEEEEEE",
"EEEEEEEEEEEEEEEEEEEEEEEEH .cVVs lVVh  JEEEEEEEEEEEEEEEEEEEEEEEEE",
"EEEEEEEEEEEEEEEEEEEEEEER9 >BVVu sVVn&X;TEEEEEEEEEEEEEEEEEEEEEEEE",
"EEEEEEEEEEEEEEEEEEEEEERJ  sVVB>X3VVVj  AEEEEEEEEEEEEEEEEEEEEEEEE",
"EEEEEEEEEEEEEEEEEEEEEEEq >mVVk...kVVB5 #YREEEEEEEEEEEEEEEEEEEEEE",
"EEEEEEEEEEEEEEEEEEEEEEY@ iVVB1   >NVVkX.LEEEEEEEEEEEEEEEEEEEEEEE",
"EEEEEEEEEEEEEEEEEEEEEEP.XgVVzX    aVVn+ FEEEEEEEEEEEEEEEEEEEEEEE",
"EEEEEEEEEEEEEEEEEEEEERS .zVVd     5VVm&.qTEEEEEEEEEEEEEEEEEEEEEE",
"EEEEEEEEEEEEEEEEEEEEEKo &bVVh     1BVB4  eTEEEEEEEEEEEEEEEEEEEEE",
"EEEEEEEEEEEEEEEEEEERT: $xVVVi     $bVVmu  FEEEEEEEEEEEEEEEEEEEEE",
"EEEEEEEEEEEEEEEEEEEEJ XfVVVk$      uVVVm< :REEEEEEEEEEEEEEEEEEEE",
"EEEEEEEEEEEEEEEEEEERt %mVVk%        iVVVf  PEEEEEEEEEEEEEEEEEEEE",
"EEEEEEEEEEEEEEEEEEER0.1VVB,          fVVx  KEEEEEEEEEEEEEEEEEEEE",
"EEEEEEEEEEEEEEEEEEER9 6VVm&          aVVc  JREEEEEEEEEEEEEEEEEEE",
"EEEEEEEEEEEEEEEEEEEE0.6VVm%          iVVM  HEEEEEEEEEEEEEEEEEEEE",
"EEEEEEEEEEEEEEEEEEER0 3ZVB*         .uVVn  GEEEEEEEEEEEEEEEEEEEE",
"EEEEEEEEEEEEEEEEEEERq 2ZVC>          uVVnO FEEEEEEEEEEEEEEEEEEEE",
"EEEEEEEEEEEEEEEEEEERe 1BVV*          7BVN$ FEEEEEEEEEEEEEEEEEEEE",
"EEEEEEEEEEEEEEEEEEERq 1VVB*         .5VVm$ DEEEEEEEEEEEEEEEEEEEE",
"EEEEEEEEEEEEEEEEEEERr <VVB,          4BVm% SEEEEEEEEEEEEEEEEEEEE",
"EEEEEEEEEEEEEEEEEEEEr <CVB,          4ZVm% AEEEEEEEEEEEEEEEEEEEE",
"EEEEEEEEEEEEEEEEEEEEt <BVB,          4VVC& AEEEEEEEEEEEEEEEEEEEE",
"EEEEEEEEEEEEEEEEEEERt.>BBB,         X4BVC* yEEEEEEEEEEEEEEEEEEEE",
"EEEEEEEEEEEEEEEEEEEEt.,BVB1          1VVC*.yEEEEEEEEEEEEEEEEEEEE",
"EEEEEEEEEEEEEEEEEEEEy >BVC<.         1VVC> yEEEEEEEEEEEEEEEEEEEE",
"EEEEEEEEEEEEEEEEEEEEy *CVB1          <VZC,.tREEEEEEEEEEEEEEEEEEE",
"EEEEEEEEEEEEEEEEEEEEy *BVV2          <BVV> tEEEEEEEEEEEEEEEEEEEE",
"EEEEEEEEEEEEEEEEEEEEA &CVB1          <BVB, wREEEEEEEEEEEEEEEEEEE",
"EEEEEEEEEEEEEEEEEEEEA &CVV3          <VVB, rEEEEEEEEEEEEEEEEEEEE",
"EEEEEEEEEEEEEEEEEEEES %mVV4.        .3BVC* yEEEEEEEEEEEEEEEEEEEE",
"EEEEEEEEEEEEEEEEEEEEG .bVVk,**&&&*>,1kVVM+ DEEEEEEEEEEEEEEEEEEEE",
"EEEEEEEEEEEEEEEEEEEEL  dVZVCmBCmmBCBVVVBf  LEEEEEEEEEEEEEEEEEEEE",
"EEEEEEEEEEEEEEEEEEEER8 *nVVVBVVVVVVVVVVn> ;TEEEEEEEEEEEEEEEEEEEE",
"EEEEEEEEEEEEEEEEEEEEEH  ,lmBVBBBVBVBBmk,  GEEEEEEEEEEEEEEEEEEEEE",
"EEEEEEEEEEEEEEEEEEEEERy  .><1344411<>%XX yREEEEEEEEEEEEEEEEEEEEE",
"EEEEEEEEEEEEEEEEEEEEEERF     .X.X .    =FREEEEEEEEEEEEEEEEEEEEEE",
"EEEEEEEEEEEEEEEEEEEEEEERUGtreqq0qwetyDKYEEEEEEEEEEEEEEEEEEEEEEEE",
"EEEEEEEEEEEEEEEEEEEEEEEEEEEEERERRREEEEREEEEEEEEEEEEEEEEEEEEEEEEE",
"EEEEEEEEEEEEEEEEEEEEEEEEEEEEEEEEEEEEEEEEEEEEEEEEEEEEEEEEEEEEEEEE",
"EEEEEEEEEEEEEEEEEEEEEEEEEEEEEEEEEEEEEEEEEEEEEEEEEEEEEEEEEEEEEEEE",
"EEEEEEEEEEEEEEEEEEEEEEEEEEEEEEEEEEEEEEEEEEEEEEEEEEEEEEEEEEEEEEEE",
"EEEEEEEEEEEEEEEEEEEEEEEEEEEEEEEEEEEEEEEEEEEEEEEEEEEEEEEEEEEEEEEE",
"EEEEEEEEEEEEEEEEEEEEEEEEEEEEEEEEEEEEEEEEEEEEEEEEEEEEEEEEEEEEEEEE",
"EEEEEEEEEEEEEEEEEEEEEEEEEEEEEEEEEEEEEEEEEEEEEEEEEEEEEEEEEEEEEEEE",
"EEEEEEEEEEEEEEEEEEEEEEEEEEEEEEEEEEEEEEEEEEEEEEEEEEEEEEEEEEEEEEEE",
"EEEEEEEEEEEEEEEEEEEEEEEEEEEEEEEEEEEEEEEEEEEEEEEEEEEEEEEEEEEEEEEE"
};
