/* XPM */
static char *bc6dc21ccc4e44e3fb90a0ce11426f20yLORBQvdpzqRCPHG[] = {
/* columns rows colors chars-per-pixel */
"64 64 47 1 ",
"  c None",
". c #11130F",
"X c #121411",
"o c #161913",
"O c #1A1C16",
"+ c #1C1F18",
"@ c #201F19",
"# c #1E211A",
"$ c #22241C",
"% c #28261F",
"& c #24281F",
"* c #252522",
"= c #292720",
"- c #262A21",
"; c #2B2C23",
": c #312E26",
"> c #2B3025",
", c #2F3428",
"< c #333027",
"1 c #333429",
"2 c #3A372C",
"3 c #343A2D",
"4 c #3C392E",
"5 c #373E30",
"6 c #3B3D30",
"7 c #413E32",
"8 c #3C4334",
"9 c #454235",
"0 c #484537",
"q c #494639",
"w c #424A39",
"e c #4D4A3C",
"r c #514E3F",
"t c #545241",
"y c #595645",
"u c #5C5947",
"i c #5E5B49",
"p c #615E4B",
"a c #65624E",
"s c #676450",
"d c #696651",
"f c #6D6A54",
"g c #716E57",
"h c #726F58",
"j c #75715A",
"k c #79765E",
"l c #7E7A61",
/* pixels */
"                                                                ",
"                                                                ",
"                                                                ",
"                                                                ",
"ooooXoooooXXOoooooooooooOoooXoXXooooOOooXooooooXOOXoooXooXoX+ooo",
"XX.XXXX.XXXXXXXX.XXXXXX.XXXXXXXXXXXXXXXX.XXXXXXXXXXXXX.XXXX.oXXX",
"X.XXXXXXXXXXXXXX.XXXXXXXX.X.XXXXXXXXXXXXXXX.XX.XXXXXXXXXXXXXXXXX",
"XXX.XX.XXXXXXXXXX.XXXX.XXXXXXXXXXXXXXXXX.XXXX.X.XXXXXX..XX.XXXXX",
"X..XX..XXXXX.XX..XX.XX.X.XXXX.XO**7<OXXXXXXX.XXXXXXXXO#+*oXXXXXX",
"XXXXXXXXXX.XX.XXXX.XX.XXXX..X$20tpst7@XXXXXXXX.XXXXXO******XXXX.",
"X..X.XX.XXXXX..XX.X.XX..X.XX@qsfsfsyyt@X.XXXX.X.XXXX*&++O+*o.XX.",
"XXXX.XX.XXX.XXX.X.XX.XXXXXXX%tffsssfdqOXXXXXX.XXXXX#*O++O+ooXX.X",
"XX.XX.XXXXXXXoXX..XXX..X..XX-9ykllkju*XXXXXX.XXXXX+-++XX++++XXXX",
".XXXX.X.XX@***::+.X.XXXXXX.XO&4rtq4:*o.XX..XX.XXXX-#+OXoO+++OXXX",
"oOOOX...X*ttppap7Oo..XX.X.XXXo#-*OoXXXXXX.XXXXXXX&&+++++oO+++OXX",
"+++OOX.X+tfpfddda2oX.XX.XXX..XXXXXXXXXX..XX.XXXXX&++++++++++++O*",
"+++++XX*6ukdddddd0O.X....XX.XX.XXXX..X.XXX.X%2;OX+++++++++++++++",
"+++++oO2eegjddddr=@+$oX.XX.XX.XXX.XXXXXX...@9sp;Xo++++++++++++++",
"+++++o@792rahda7$O++#$X.X.X.XX...XXXX...XX.@7rr;Xo+++oo+++++++++",
"++++@oO:4222491@X++++$OXX.XX.XXXXX.XXXX.X...@:;OXo+#+o++++++++++",
"+++++OooOOooooo.oOO#+#$XX.XX.XXX..XXXo##+o...XoX++++++++++++#+++",
"++++++OoooX.XXoo###O++$#X.X.XX..XX.XXo#O+#+oo#O#+++#++++++++++++",
"++++++++#OOO#O#O#####O#&##X.X.XXX.XX.o#O$&;&#####----##+++++++++",
"++++++++O###O###&&&###O##-#o.X.XXXX..oO#>1>>>>->>>>>>>-+++#+++++",
"++++++++++++##&>>>>&##o#o###oXXX.X.XXX###8>>>>>>>>>>>>>#++++++++",
"++++++++++##&>>>>>>;#########.XX.XXX.X.##>3>>>>>>>>>>>>$++++++++",
"+++++##-$&-;>>>>>>>-#oo#####-#X.XXX..X.X##83>>>>>>>>>>>&++++++#+",
"+++++#3,>>>>>>>>>>>>##########X.X..XX.XXXo#,8>>>>>>>,,>$++++++++",
"@+++$53>>>>>>>>>>>>&###oo##o##o.X..XXX.X.oO#>88888883;$#####++++",
"++++1w>>>>>>>>>>>;#####..o###-oX.XXX.X.XXXo##&&&$####OO#####++++",
"++++-88,>>>>>>>>>&###O#o#o###,#XXXX.X.XXX..##O#o#O##$$;20r8&#+++",
"#++++#8w3>>>>,8,####O#O#####-#X.X.X.XXX.X..o###o##O#4riafayw>#++",
"+++++++>8888888#o#o#o#o#####oXXXX.XX..XXXXX#####o#o&afddddua0@O#",
"++++++++#&&&&#o+########oXX.X.X.XX.XXXX..XX####o###<rhgfggha<##O",
"+++++++##+++++++##o####oX.XXXXXX..XX.X.X.XX#o#o####%2rghgsu2###O",
"++++++++++++++++#o###o#XXXX.XX.XXXX.XX.X..#o########$<92:%$$O#O#",
"++++++++++++++++###o##....X..XXX..XXX..XXo######o###O####o#o##O#",
"++++++++++++++++#o##o#o.XXXXXX.X.O<9,#X#####o#o####oO##O####O##O",
"++++++++++++#+#O#o#o###.X..XX..XX%udu&o##o#####oo#o######o###o#o",
"+++++++++++#O#O######o###oXoXXXXO7udd4o###o#o########oO###o#####",
"++###++###o#O##O#o##&-&&#####oXX$9rua9OO##O#####++++++++#OO#OO#O",
"++++++++#o###OO####->>>>>;-####Oo%994&O##OO##oXX++++++++O##O##O#",
"++++++++###oO#O###>>>>>>>>>>>>##O$@@ooo##O#OXXoo++++++++##O####O",
"++++++++o####O#O#&>>>>>>>>>>>>,,$OOo#o##O##OX.##++++++++O##OOo##",
"++++++++####o#o##>>>>>>>>>>>>>>,4,##OoXX.O###o##++++++++#O######",
"++++++++o#o######>>>>>>>>>>>>>>>>8>##oXX.Xo###o#++++++++O#OO#o#o",
"++++&-#######Oo##>>>>>>>>>>>>>>>>>8##ooX.XO#o#o#++++O#O##OO#O##O",
"++++8pw,##Oo#####&>->>>>>>>>>>>>>>3>###XXXo#####++++#O#O###O#O##",
"+++$9yaae=@+++++##;>>>>>>>>;>>>>>>,5#+#$XXXO++++++++++++++++++++",
"+++$9rypar$+++++O#&>>>>>>>>>>>>>>>>8-++&oXXXOO++++++++++++++++++",
"+++#1990re$+++++#O#;>>>>>>>>>>>>>>>83+#$o.XXXXOO++++++++++++++++",
"++++##%%;%@++++++++$>>>>>>>>>>>>>>>8-+#$oXXXXXOO++++++++++++++++",
"++++++++++++++++++++*--;>;->>>>>>>83#++$XXXX.XXO++++++++++++++++",
"+++++++++++++++++#+++++$#######;,83#++##XXXXXXXO++++++++++++++++",
"+++#+++OO+++++++++++++++##O###O####+++##X.X.X.XO+++++++oO+++++++",
"++++++++O++++++++++oooOO#oo##&##++#++#*oXXXXXXO++++++++oO+++++++",
"X#######+++++++++++OX.O@+o+%9ut01;#+#$+XX.XXXX+++++++oo#++++++++",
"###Xo#o#++++++++++OXXXOOo$2yddddsu6*$+XXX.X.X++++++#+++#++#+++++",
"#######o++Oo++++++oXXX**2rsdddddddsy7%oXXXXXO++++++++$<2&##+++++",
"####o###++OO+++++@oXO;7yghfapadddddddi9:@XXo@++++++++%yae#++++++",
"X##o#o#o++#O++++++oo:qrtudlsy0pddddddddit:+O+++++++##&qyw#++++++",
"########+#O#++++++O+7rerrqdlhsdddddddddpuuq*#+++++++O#%:&#++++++",
"###o###O++#OO#++++O@2qeeeqrppsssspyttttttqt4##++++++######O+++++",
"ooo#oo##oOOO+OOOO+OO+******$****************OOOOoO+ooOo#oO#Oo+o+"
};
