/* XPM */
static char *result[] = {
/* columns rows colors chars-per-pixel */
"64 64 104 2 ",
"   c black",
".  c #030000",
"X  c gray2",
"o  c #070404",
"O  c #060606",
"+  c #0C0909",
"@  c #130C0C",
"#  c #2D2D2D",
"$  c gray18",
"%  c #2F2F2F",
"&  c gray19",
"*  c #353535",
"=  c gray21",
"-  c #373737",
";  c gray22",
":  c #393939",
">  c #3A3A3A",
",  c #440100",
"<  c #460100",
"1  c #470100",
"2  c #4F0000",
"3  c #500000",
"4  c #500100",
"5  c #500101",
"6  c #570100",
"7  c #580100",
"8  c #690100",
"9  c #680101",
"0  c #6A0100",
"q  c #6B0100",
"w  c #6B0101",
"e  c #710100",
"r  c #720100",
"t  c #720101",
"y  c #7A0101",
"u  c #7B0101",
"i  c #7D0101",
"p  c #414141",
"a  c gray26",
"s  c #4C4C4C",
"d  c gray33",
"f  c #555555",
"g  c #565656",
"h  c #5A5A5A",
"j  c gray36",
"k  c #5D5D5D",
"l  c gray37",
"z  c #646464",
"x  c #676767",
"c  c #686868",
"v  c DimGray",
"b  c gray48",
"n  c #930101",
"m  c #A10101",
"M  c #AB0101",
"N  c #AC0101",
"B  c #B80101",
"V  c #BE0101",
"C  c #C60101",
"Z  c #C70101",
"A  c #CC0101",
"S  c #D00101",
"D  c #E50101",
"F  c #E70100",
"G  c #E60101",
"H  c #E90101",
"J  c #EB0101",
"K  c #EC0101",
"L  c #F10100",
"P  c #F20000",
"I  c #F20100",
"U  c #F40000",
"Y  c #F60000",
"T  c #F70000",
"R  c #F60100",
"E  c #FA0000",
"W  c #FC0000",
"Q  c #FD0000",
"!  c #FE0000",
"~  c #808080",
"^  c #838383",
"/  c #848484",
"(  c gray52",
")  c gray69",
"_  c #B9B9B9",
"`  c gray",
"'  c gray75",
"]  c #C8C8C8",
"[  c gray79",
"{  c gray84",
"}  c gray86",
"|  c gainsboro",
" . c #DDDDDD",
".. c gray87",
"X. c gray88",
"o. c #E1E1E1",
"O. c #E4E4E4",
"+. c #E9E9E9",
"@. c #ECECEC",
"#. c #EFEFEF",
"$. c gray95",
"%. c #F9F9F9",
"&. c gray98",
"*. c white",
/* pixels */
"! U t ; X.*.*.*.*.*.*.*.*.*.*.*.*.*.*.*.@.f 7 K ! ! I q a O.*.*.*.*. .& u Y ! ! D 1 c $.*.*.*.*.*.*.*.*.*.*.*.*.*.*.} $ u Y ! ! ",
"! ! U t = X.*.*.*.*.*.*.*.*.*.*.*.*.*.*.*.@.d 7 K ! ! I 0 p O.*.*.| & u T ! ! D < x $.*.*.*.*.*.*.*.*.*.*.*.*.*.*.} $ u T ! ! D ",
"H ! ! U e * X.*.*.*.*.*.*.*.*.*.*.*.*.*.*.*.@.f 6 K ! ! I 8 p O. .& y T ! ! G , c $.*.*.*.*.*.*.*.*.*.*.*.*.*.*.| $ y T ! ! G , ",
"4 H ! ! U e = X.*.*.*.*.*.*.*.*.*.*.*.*.*.*.*.@.g 6 K ! ! I 0 a & u T ! ! D , c $.*.*.*.*.*.*.*.*.*.*.*.*.*.*.| # u T ! ! D , v ",
"l 3 H ! ! U t - X.*.*.*.*.*.*.*.*.*.*.*.*.*.*.*.@.f 7 K ! ! I q u T ! ! D < c $.*.*.*.*.*.*.*.*.*.*.*.*.*.*.| # u T ! ! D < c $.",
"#.j 3 H ! ! U t = X.*.*.*.*.*.*.*.*.*.*.*.*.*.*.*.@.d 7 K ! ! P Y ! ! D < x $.*.*.*.*.*.*.*.*.*.*.*.*.*.*.} $ u T ! ! D < x $.*.",
"*.#.j 3 H ! ! U e = X.*.*.*.*.*.*.*.*.*.*.*.*.*.*.*.@.f 6 K ! ! ! ! G , c $.*.*.*.*.*.*.*.*.*.*.*.*.*.*.| $ y T ! ! G , c $.*.*.",
"*.*.#.k 4 H ! ! U e = X.*.*.*.*.*.*.*.*.*.*.*.*.*.*.*.[   n ! ! ! ! i   { *.*.*.*.*.*.*.*.*.*.*.*.*.*.| # u T ! ! D , c $.*.*.*.",
"*.*.*.#.k 3 H ! ! U t - X.*.*.*.*.*.*.*.*.*.*.*.*.*. .% u T ! ! ! ! I q p O.*.*.*.*.*.*.*.*.*.*.*.*.| # u T ! ! D < c $.*.*.*.*.",
"*.*.*.*.#.j 3 H ! ! U t - X.*.*.*.*.*.*.*.*.*.*.*.| & u T ! ! D K ! ! I 0 p O.*.*.*.*.*.*.*.*.*.*.} $ u T ! ! D < x $.*.*.*.*.*.",
"*.*.*.*.*.#.j 3 H ! ! U e = X.*.*.*.*.*.*.*.*.*. .& y T ! ! G , 6 K ! ! I 8 p O.*.*.*.*.*.*.*.*.| $ y T ! ! G , c $.*.*.*.*.*.*.",
"*.*.*.*.*.*.#.k 4 H ! ! U e - X.*.*.*.*.*.*.*. .% u T ! ! D , v g 6 K ! ! I 0 p O.*.*.*.*.*.*.| # u T ! ! D , c $.*.*.*.*.*.*.*.",
"*.*.*.*.*.*.*.#.k 3 H ! ! U t ; X.*.*.*.*.*. .% u T ! ! D < c $.@.f 7 K ! ! I q p O.*.*.*.*.| # u T ! ! D < c $.*.*.*.*.*.*.*.*.",
"*.*.*.*.*.*.*.*.#.j 3 H ! ! U t - X.*.*.*.| & u T ! ! D < x $.*.*.@.d 7 K ! ! I 0 p O.*.*.} $ u T ! ! D < x $.*.*.*.*.*.*.*.*.*.",
"*.*.*.*.*.*.*.*.*.#.j 3 H ! ! U e = X.*. .& y T ! ! G , c $.*.*.*.*.@.f 6 K ! ! I 8 p O.| $ y T ! ! G , c $.*.*.*.*.*.*.*.*.*.*.",
"*.*.*.*.*.*.*.*.*.*.#.k 4 H ! ! U e - ` % u T ! ! D , c $.*.*.*.*.*.*.@.g 6 K ! ! I 0 p $ u T ! ! D , c $.*.*.*.*.*.*.*.*.*.*.*.",
"*.*.*.*.*.*.*.*.*.*.*.#.k 3 H ! ! U t   u T ! ! D < c $.*.*.*.*.*.*.*.*.@.f 7 K ! ! I q u T ! ! D < c $.*.*.*.*.*.*.*.*.*.*.*.*.",
"*.*.*.*.*.*.*.*.*.*.*.*.#.j 3 H ! ! U m T ! ! D < x $.*.*.*.*.*.*.*.*.*.*.@.d 7 K ! ! P Y ! ! D < x $.*.*.*.*.*.*.*.*.*.*.*.*.*.",
"*.*.*.*.*.*.*.*.*.*.*.*.*.#.j 3 H ! ! ! ! ! G , c $.*.*.*.*.*.*.*.*.*.*.*.*.@.f 6 K ! ! ! ! G , c $.*.*.*.*.*.*.*.*.*.*.*.*.*.*.",
"*.*.*.*.*.*.*.*.*.*.*.*.*.*.#.h 4 J ! ! ! F , z $.*.*.*.*.*.*.*.*.*.*.*.*.*.*.]   n ! ! ! ! i   { *.*.*.*.*.*.*.*.*.*.*.*.*.*.*.",
"X.*.*.*.*.*.*.*.*.*.*.*.*.*. .% u Y ! ! ! U t ; X.*.*.*.*.*.*.*.*.*.*.*.*.*.| # u T ! ! ! ! I q p O.*.*.*.*.*.*.*.*.*.*.*.*.*.%.",
"- X.*.*.*.*.*.*.*.*.*.*.*.| & u T ! ! W ! ! U t - X.*.*.*.*.*.*.*.*.*.*.*.} $ u T ! ! D K ! ! I 0 p O.*.*.*.*.*.*.*.*.*.*.*.%./ ",
"r = X.*.*.*.*.*.*.*.*.*. .& y T ! ! G 9 H ! ! U e = X.*.*.*.*.*.*.*.*.*.| $ y T ! ! G , 6 K ! ! I 8 p O.*.*.*.*.*.*.*.*.*.%./   ",
"U e - X.*.*.*.*.*.*.*. .% u T ! ! D ,   4 H ! ! U e - X.*.*.*.*.*.*.*.| # u T ! ! D , v g 6 K ! ! I 0 p O.*.*.*.*.*.*.*.%./   M ",
"! U t ; X.*.*.*.*.*. .% u T ! ! D < c o.k 3 H ! ! U t ; X.*.*.*.*.*.| # u T ! ! D < c $.@.f 7 K ! ! I q p O.*.*.*.*.*.%.^   M ! ",
"! ! U t - X.*.*.*.| & u T ! ! D < x $.*.#.j 3 H ! ! U t - X.*.*.*.| % u T ! ! D < x $.*.*.@.d 7 K ! ! I 0 p O.*.*.*.%./   N ! ! ",
"H ! ! U e = X.*. .& y T ! ! G , c $.*.*.*.#.j 3 H ! ! U e = X.*.| % y T ! ! G , c $.*.*.*.*.@.f 6 K ! ! I 8 p O.*.%./   M ! ! ! ",
"4 H ! ! U e - ' % u T ! ! D , c $.*.*.*.*.*.#.k 4 H ! ! U e - ` # u T ! ! D , c $.*.*.*.*.*.*.@.g 6 K ! ! I 0 p ../   M ! ! ! C ",
"l 3 H ! ! U t   u T ! ! D < c $.*.*.*.*.*.*.*.#.k 3 H ! ! U t   u T ! ! D < c $.*.*.*.*.*.*.*.*.@.f 7 K ! ! I q     M ! ! ! Z + ",
"#.j 3 H ! ! U m T ! ! D < x $.*.*.*.*.*.*.*.*.*.#.j 3 H ! ! U m T ! ! D < x $.*.*.*.*.*.*.*.*.*.*.@.d 7 K ! ! I 0 N ! ! ! Z @ [ ",
"*.#.j 3 H ! ! ! ! ! G , c $.*.*.*.*.*.*.*.*.*.*.*.#.j 3 H ! ! ! ! ! G , c $.*.*.*.*.*.*.*.*.*.*.*.*.@.f 6 K ! ! R Q ! ! Z @ [ *.",
"*.*.#.h 4 J ! ! ! F , z $.*.*.*.*.*.*.*.*.*.*.*.*.*.#.h 4 J ! ! ! F , z $.*.*.*.*.*.*.*.*.*.*.*.*.*.*.@.g 6 K ! ! ! ! Z o [ *.*.",
"*.*. .% u Y ! ! ! U t ; X.*.*.*.*.*.*.*.*.*.*.*.*.*.| $ u Y ! ! ! U t ; X.*.*.*.*.*.*.*.*.*.*.*.*.*.*.%.~   B ! ! ! E w : O.*.*.",
"*.| & u T ! ! W ! ! U t - X.*.*.*.*.*.*.*.*.*.*.*.| % u T ! ! W ! ! U t - X.*.*.*.*.*.*.*.*.*.*.*.*.%./   N ! ! ! ! ! I 0 p O.*.",
" .& y T ! ! G 9 H ! ! U e - X.*.*.*.*.*.*.*.*.*.| % y T ! ! G 9 H ! ! U e = X.*.*.*.*.*.*.*.*.*.*.%./   M ! ! ! A K ! ! I 8 p O.",
"& u T ! ! D ,   4 H ! ! U e - X.*.*.*.*.*.*.*.| $ u T ! ! D ,   4 H ! ! U e - X.*.*.*.*.*.*.*.*.%./   M ! ! ! Z . 6 K ! ! I 0 a ",
"u T ! ! D < c o.k 3 H ! ! U t ; X.*.*.*.*.*.| $ u T ! ! D < c o.k 3 H ! ! U t ; X.*.*.*.*.*.*.%./   M ! ! ! Z o _ f 7 K ! ! I q ",
"Y ! ! D < x $.*.#.j 3 H ! ! U t - X.*.*.*.| % u T ! ! D < x $.*.#.j 3 H ! ! U t - X.*.*.*.*.%./   N ! ! ! Z @ [ *.@.d 7 K ! ! I ",
"! ! G , c $.*.*.*.#.j 3 H ! ! U e - X.*.| % y T ! ! G , c $.*.*.*.#.j 3 H ! ! U e - X.*.*.%./   M ! ! ! Z @ [ *.*.*.@.f 6 K ! ! ",
"! D , c $.*.*.*.*.*.#.k 4 H ! ! U e - ` $ u T ! ! D , c $.*.*.*.*.*.#.k 4 H ! ! U e - X.%./   M ! ! ! Z o [ *.*.*.*.*.@.g 6 K ! ",
"D < c $.*.*.*.*.*.*.*.#.k 3 H ! ! U t   u T ! ! D < c $.*.*.*.*.*.*.*.#.k 3 H ! ! U t ; b   M ! ! ! Z o [ *.*.*.*.*.*.*.@.f 7 K ",
"1 x $.*.*.*.*.*.*.*.*.*.#.j 3 H ! ! U m T ! ! D < x $.*.*.*.*.*.*.*.*.*.#.j 3 H ! ! U t   N ! ! ! Z @ [ *.*.*.*.*.*.*.*.*.@.d 7 ",
"c $.*.*.*.*.*.*.*.*.*.*.*.#.j 3 H ! ! ! ! ! G , c $.*.*.*.*.*.*.*.*.*.*.*.#.j 3 H ! ! U V ! ! ! Z @ [ *.*.*.*.*.*.*.*.*.*.*.@.f ",
"$.*.*.*.*.*.*.*.*.*.*.*.*.*.#.h 4 J ! ! ! F , z $.*.*.*.*.*.*.*.*.*.*.*.*.*.#.k 4 H ! ! ! ! ! Z o [ *.*.*.*.*.*.*.*.*.*.*.*.*.@.",
"*.*.*.*.*.*.*.*.*.*.*.*.*.*.| $ u Y ! ! ! U t : X.*.*.*.*.*.*.*.*.*.*.*.*.*.*.+.X 2 L ! ! ! S . ) *.*.*.*.*.*.*.*.*.*.*.*.*.*.*.",
"*.*.*.*.*.*.*.*.*.*.*.*.*.| % u T ! ! W ! ! U t ; X.*.*.*.*.*.*.*.*.*.*.*.*.&./   N ! ! ! ! U t ; X.*.*.*.*.*.*.*.*.*.*.*.*.*.*.",
"*.*.*.*.*.*.*.*.*.*.*.*.| % y T ! ! G 9 H ! ! U e - X.*.*.*.*.*.*.*.*.*.*.&./   M ! ! ! Y ! ! U e - X.*.*.*.*.*.*.*.*.*.*.*.*.*.",
"*.*.*.*.*.*.*.*.*.*.*.| $ u T ! ! D ,   4 H ! ! U e ; X.*.*.*.*.*.*.*.*.%./   M ! ! ! Z 5 H ! ! U e ; X.*.*.*.*.*.*.*.*.*.*.*.*.",
"*.*.*.*.*.*.*.*.*.*.| $ u T ! ! D < c o.k 3 H ! ! U t : X.*.*.*.*.*.*.%./   M ! ! ! Z o s 3 H ! ! U t : X.*.*.*.*.*.*.*.*.*.*.*.",
"*.*.*.*.*.*.*.*.*.| % u T ! ! D < x $.*.#.j 3 H ! ! U t ; X.*.*.*.*.&./   N ! ! ! Z @ [ #.j 3 H ! ! U t ; X.*.*.*.*.*.*.*.*.*.*.",
"*.*.*.*.*.*.*.*.| % y T ! ! G , c $.*.*.*.#.j 3 H ! ! U e - X.*.*.&.(   M ! ! ! Z @ [ *.*.#.j 3 H ! ! U e - X.*.*.*.*.*.*.*.*.*.",
"*.*.*.*.*.*.*.| $ u T ! ! D , c $.*.*.*.*.*.#.k 4 H ! ! U e ; X.&./   M ! ! ! Z o [ *.*.*.*.#.k 4 H ! ! U e ; X.*.*.*.*.*.*.*.*.",
"*.*.*.*.*.*.| $ u T ! ! D < c $.*.*.*.*.*.*.*.#.k 3 H ! ! U t : b   M ! ! ! Z o [ *.*.*.*.*.*.#.k 3 H ! ! U t : X.*.*.*.*.*.*.*.",
"*.*.*.*.*.| % u T ! ! D < x $.*.*.*.*.*.*.*.*.*.#.j 3 H ! ! U t   N ! ! ! Z @ [ *.*.*.*.*.*.*.*.#.j 3 H ! ! U t ; X.*.*.*.*.*.*.",
"*.*.*.*.| % y T ! ! G , c $.*.*.*.*.*.*.*.*.*.*.*.#.j 3 H ! ! U V ! ! ! Z @ [ *.*.*.*.*.*.*.*.*.*.#.j 3 H ! ! U e - X.*.*.*.*.*.",
"*.*.*.| $ u T ! ! D , c $.*.*.*.*.*.*.*.*.*.*.*.*.*.#.k 4 H ! ! ! ! ! Z o [ *.*.*.*.*.*.*.*.*.*.*.*.#.k 4 H ! ! U e ; X.*.*.*.*.",
"*.*.| $ u T ! ! D < c $.*.*.*.*.*.*.*.*.*.*.*.*.*.*.*.+.O 2 L ! ! ! S . ) *.*.*.*.*.*.*.*.*.*.*.*.*.*.#.k 3 H ! ! U t : X.*.*.*.",
"*.| % u T ! ! D < x $.*.*.*.*.*.*.*.*.*.*.*.*.*.*.*.&./   N ! ! ! ! U t ; X.*.*.*.*.*.*.*.*.*.*.*.*.*.*.#.j 3 H ! ! U t ; X.*.*.",
"| % y T ! ! G , c $.*.*.*.*.*.*.*.*.*.*.*.*.*.*.*.&.(   M ! ! ! Y ! ! U e - X.*.*.*.*.*.*.*.*.*.*.*.*.*.*.#.j 3 H ! ! U e - X.*.",
"& u T ! ! D , c $.*.*.*.*.*.*.*.*.*.*.*.*.*.*.*.&./   M ! ! ! Z 5 H ! ! U e ; X.*.*.*.*.*.*.*.*.*.*.*.*.*.*.#.k 4 H ! ! U e ; X.",
"u T ! ! D < c $.*.*.*.*.*.*.*.*.*.*.*.*.*.*.*.&./   M ! ! ! Z o s 3 H ! ! U t : X.*.*.*.*.*.*.*.*.*.*.*.*.*.*.#.k 3 H ! ! U t > ",
"Y ! ! D < x $.*.*.*.*.*.*.*.*.*.*.*.*.*.*.*.&.(   N ! ! ! Z @ [ #.j 3 H ! ! U t ; X.*.*.*.*.*.*.*.*.*.*.*.*.*.*.#.j 3 H ! ! U t ",
"! ! G , c $.*.*.*.*.*.*.*.*.*.*.*.*.*.*.*.&.(   M ! ! ! Z @ [ *.*.#.j 3 H ! ! U e - X.*.*.*.*.*.*.*.*.*.*.*.*.*.*.#.j 3 H ! ! U ",
"! D , v $.*.*.*.*.*.*.*.*.*.*.*.*.*.*.*.%.(   M ! ! ! C + [ *.*.*.*.#.l 4 H ! ! U r ; X.*.*.*.*.*.*.*.*.*.*.*.*.*.*.#.l 4 H ! ! "
};
