/* XPM */
static char *_51ef6dfe0b84d12ca4740fa1da749908opritLaasNwwEGs[] = {
/* columns rows colors chars-per-pixel */
"64 64 44 1 ",
"  c None",
". c #181715",
"X c #1A1916",
"o c #1E1C18",
"O c #241711",
"+ c #261913",
"@ c #2A1C14",
"# c #221E19",
"$ c #222017",
"% c #2D2017",
"& c #26231A",
"* c #2B241B",
"= c #2E2B1F",
"- c #322419",
"; c #36291C",
": c #3A2D1E",
"> c #262421",
", c #292723",
"< c #2E2B27",
"1 c #3D2F20",
"2 c #312E29",
"3 c #3E3121",
"4 c #37322E",
"5 c #3C3832",
"6 c #443524",
"7 c #473826",
"8 c #4A3A27",
"9 c #4F3E2A",
"0 c #503F2A",
"q c #53412C",
"w c #59452F",
"e c #5B4730",
"r c #5D4932",
"t c #634D35",
"y c #665036",
"u c #685237",
"i c #685238",
"p c #5B534A",
"a c #635B51",
"s c #72675C",
"d c #74695E",
"f c #766B60",
"g c #7B7064",
"h c #908274",
/* pixels */
"                                                                ",
"                                                                ",
"                                                                ",
"       OOOOOO                                      OOO+OO       ",
"   OOOOOOOOOOOOOOOOOOOOO+OOOOOOOO+OOOOOOOOOOOOOOOOOOOO++OOOOO   ",
"   OO@--%----@@----------%@@@@@@@@@@@@@@@@@@@O@@+@+@@@@@@@+OO   ",
"   O+69861170qqttrreewwwrettttttttwewwwtrrrrwwqqqwqe8360081+O   ",
"   O@891oXX#60000qq0qq0000000q0wqqwwwwwwrrrttyyyyyt9&oX#608@O   ",
"   O@86oX<>.#70866066600qq8qqq8q0099990909009q9qqq7oX<,.#88@O   ",
"   O@81.2gf,X407:363:38088qq88q80009999999999967991X2gf,X38@O   ",
"   O@81.<ff,.18888866609q8q8q8qq0099990090999967991X<fs,X38@+   ",
"   O+6:oX,>.o:11:3366666667677767787888877777789971oX>>.o17@O   ",
"   OO;:*X..O*;;;;;;;;;;;;;:;::::::1:1::31:111111111&o..#-:1+O   ",
"   OO+OOOOOOO+++++++OO@++++++@@@@@@@%%@**-*------%@@+OO@--*+O   ",
"   OO+OO+++++++OOOOOO@+OOOO++OOOOOOOOOXOOOO+++++++O+OOOOOOOO+   ",
"   OO-;;;;;;;;;+O==*=**=*=*****&OO@@%%@@@@++++++O+----%*@@+OO   ",
"   O@:::::11:::++-=====;=======+O+===========*$O+;:::3:1::-@O   ",
"   O+:1:1;::1::+O====<========+O+============%OO+:1::::::1:+O   ",
"   O@:11611616;+O=======&&===$O+&;==========%OOO+;::::::1::O+   ",
"   O@6888888887++=======&$&*OO+*========;==$OO%++::31666676++   ",
"   O@8990999998@O========*=$O+============@OO*=O+:678099908@O   ",
"   O@8099990998@+=========+O+============$OO&==O@6999009998@O   ",
"   O@8990909998@+=====<==+O+*===========%O+&===+@8099999908@O   ",
"   O@8099999908@+*======+O+*===========$O+&;===O@7090909998@O   ",
"   O@7080008096@+======$O+*===========$O+*=====O@8090080908@O   ",
"   O@8000000998@+=====OO+*===========%OO*======++8990000997@O   ",
"   O@7990000098@O====+O+*========2==%OO*=======+@8098000998@O   ",
"   O@8090080008@+==*+O+============%OO*========+@8900080098@O   ",
"   O@8909009996++==+O+*===========%OO*=======;-++8000800007@O   ",
"   O@8999999006++*$O+*==========*+OO&========<,+@8000000907@O   ",
"   O@8909999901O++O+*==========*+O+*==========*++8090090097@O   ",
"   O@8990909901OOO+*===========@O$======<====*+O+8908099096@O   ",
"   O+899999q8q:OO+============++$*==========*+OO+6qq7qqqq83OO   ",
"   O@89909087q1OO======<=====+O+;==========*+++O%q7qqq6qqq:OO   ",
"   O@8q999831q6O+===========+O+===========*+O+*++7qqq7q76q;O+   ",
"   O@8990906:97O+==========&O+*==========*+O+==+@6q7q7qqqq:O+   ",
"   +@8q990988q8@O=========$O+&===========+O+===+@qq8qq7q996+O   ",
"   O+89999q9688@+========%OO============+O+===*++68qq7qq996+O   ",
"   O@8q89q88366@+*======%OO*===========+O+====*+@8qqq8qq998++   ",
"   O@88q98q8::7@+======+OO*==========*+O$*=====+@8q87q:6998@O   ",
"   O@8007qq8368@+=====@OO*==========*+O+=======O@8999978098@O   ",
"   O@800qq7qqq8@O====$OO============OO+========O@8909099998@O   ",
"   O@808q78q8q7@O===%O+*=====;====*+O$=========+@8086808898@O   ",
"   O@800q8qqq87+O==@OO*==========*+++==========O@897:68::98@O   ",
"   O@8867qq88q8@+*%OO%==========*+O$===========O@807686:188@O   ",
"   O+87:688qqq8@O$OO*==========*+++**$*========+@7009986698@O   ",
"   O@8867qq88q8@OO+*==========*+O+==&$&========O@8009908008@O   ",
"   O@808qq8q8q8@O+*========<=*+O$====&*$$======+@8089000998@O   ",
"   O@8999099998@O*===========OO+======*$$&=====+@8000909998@O   ",
"   O@8000099008@O===========OO#====;===*&=====*+@8000000008@O   ",
"   O+::6:6:1166OO%*%*&**%*&+OO%%*&&***********%++:1111111-;O+   ",
"   OOOO+OOOOO@OOOOOOOOOOOOOOOOO@O+OOO+OO++OOO+O@OOOOO+O+OOOOO   ",
"   OO@@+@@@@@OO@%-----%-*%@@%@@@%%@@@@%@%%@@@%@@@@@@--@@@-@OO   ",
"   O+1771>#%66689wttyyyytttttyytyttytttttttyttyttttt0617006OO   ",
"   O@606#.#.O69900qwtttyyyyyyyuiuyyuyyytttttrttrtw03#XX#686@O   ",
"   O+60*.5p2.-986796669qqqq0qqqqqqqqqqqq9q9q9999996@X<,X#87@O   ",
"   O@68&oahp.>96:66::699999090909q999999099099669q1.<gf,X66@O   ",
"   O+78&.4p2.@896886668q09009990q8999q9999999968902.<fs,X16+O   ",
"   O@13-X...o-1136666666666667666777777768666668761XX,>Xo11+O   ",
"   OO;::,@##-;;1:-----:;;:;:;:::::::::::::::::111:1%...o=1;OO   ",
"   OO@@@@@+++++@++@OO@++++++++@@@@@@@@%@%%%%-%--*@O+OOO+@@@@O   ",
"   OOOOOOOOO+OO+OOOOOOOOOOOOOOOOOOO+OOOOOOOOOOOOOOOOOOOO+OOOO   ",
"    OOOOOOOOOOOO                                O+OOOOOOOOOO    ",
"                                                                "
};
